<svg width="14" height="14" viewBox="0 0 14 14" fill="none" xmlns="http://www.w3.org/2000/svg">
<path d="M5.66666 7.66659H0.999995C0.823184 7.66659 0.653615 7.73682 0.52859 7.86185C0.403566 7.98687 0.333328 8.15644 0.333328 8.33325V12.9999C0.333328 13.1767 0.403566 13.3463 0.52859 13.4713C0.653615 13.5963 0.823184 13.6666 0.999995 13.6666H5.66666C5.84347 13.6666 6.01304 13.5963 6.13807 13.4713C6.26309 13.3463 6.33333 13.1767 6.33333 12.9999V8.33325C6.33333 8.15644 6.26309 7.98687 6.13807 7.86185C6.01304 7.73682 5.84347 7.66659 5.66666 7.66659ZM5 12.3333H1.66666V8.99992H5V12.3333ZM13 0.333252H8.33333C8.15652 0.333252 7.98695 0.40349 7.86192 0.528514C7.7369 0.653538 7.66666 0.823108 7.66666 0.999919V5.66659C7.66666 5.8434 7.7369 6.01297 7.86192 6.13799C7.98695 6.26301 8.15652 6.33325 8.33333 6.33325H13C13.1768 6.33325 13.3464 6.26301 13.4714 6.13799C13.5964 6.01297 13.6667 5.8434 13.6667 5.66659V0.999919C13.6667 0.823108 13.5964 0.653538 13.4714 0.528514C13.3464 0.40349 13.1768 0.333252 13 0.333252ZM12.3333 4.99992H9V1.66659H12.3333V4.99992ZM13 7.66659H8.33333C8.15652 7.66659 7.98695 7.73682 7.86192 7.86185C7.7369 7.98687 7.66666 8.15644 7.66666 8.33325V12.9999C7.66666 13.1767 7.7369 13.3463 7.86192 13.4713C7.98695 13.5963 8.15652 13.6666 8.33333 13.6666H13C13.1768 13.6666 13.3464 13.5963 13.4714 13.4713C13.5964 13.3463 13.6667 13.1767 13.6667 12.9999V8.33325C13.6667 8.15644 13.5964 7.98687 13.4714 7.86185C13.3464 7.73682 13.1768 7.66659 13 7.66659ZM12.3333 12.3333H9V8.99992H12.3333V12.3333ZM5.66666 0.333252H0.999995C0.823184 0.333252 0.653615 0.40349 0.52859 0.528514C0.403566 0.653538 0.333328 0.823108 0.333328 0.999919V5.66659C0.333328 5.8434 0.403566 6.01297 0.52859 6.13799C0.653615 6.26301 0.823184 6.33325 0.999995 6.33325H5.66666C5.84347 6.33325 6.01304 6.26301 6.13807 6.13799C6.26309 6.01297 6.33333 5.8434 6.33333 5.66659V0.999919C6.33333 0.823108 6.26309 0.653538 6.13807 0.528514C6.01304 0.40349 5.84347 0.333252 5.66666 0.333252ZM5 4.99992H1.66666V1.66659H5V4.99992Z" fill="white"/>
</svg>
