<svg width="6" height="10" viewBox="0 0 6 10" fill="none" xmlns="http://www.w3.org/2000/svg">
<path d="M5.36 4.52661L1.58666 0.759943C1.52469 0.697457 1.45096 0.647861 1.36972 0.614016C1.28848 0.58017 1.20134 0.562744 1.11333 0.562744C1.02532 0.562744 0.938186 0.58017 0.856947 0.614016C0.775707 0.647861 0.701973 0.697457 0.639998 0.759943C0.515831 0.884851 0.446136 1.05382 0.446136 1.22994C0.446136 1.40607 0.515831 1.57503 0.639998 1.69994L3.94 5.03328L0.639998 8.33328C0.515831 8.45818 0.446136 8.62715 0.446136 8.80328C0.446136 8.9794 0.515831 9.14837 0.639998 9.27328C0.701741 9.33627 0.775371 9.38638 0.856621 9.42071C0.937872 9.45504 1.02513 9.47291 1.11333 9.47327C1.20154 9.47291 1.28879 9.45504 1.37004 9.42071C1.45129 9.38638 1.52492 9.33627 1.58666 9.27328L5.36 5.50661C5.42767 5.44418 5.48167 5.36841 5.51861 5.28408C5.55555 5.19975 5.57462 5.10868 5.57462 5.01661C5.57462 4.92454 5.55555 4.83347 5.51861 4.74914C5.48167 4.66481 5.42767 4.58904 5.36 4.52661V4.52661Z" fill="white"/>
</svg>
