<svg width="17" height="16" viewBox="0 0 17 16" fill="none" xmlns="http://www.w3.org/2000/svg">
<path d="M12.6667 12.6667H4.66672C4.13629 12.6667 3.62758 12.456 3.25251 12.0809C2.87744 11.7058 2.66672 11.1971 2.66672 10.6667V5.33333C2.66672 5.15652 2.59648 4.98695 2.47146 4.86193C2.34644 4.7369 2.17687 4.66667 2.00006 4.66667C1.82324 4.66667 1.65368 4.7369 1.52865 4.86193C1.40363 4.98695 1.33339 5.15652 1.33339 5.33333V10.6667C1.33339 11.5507 1.68458 12.3986 2.3097 13.0237C2.61923 13.3332 2.98669 13.5788 3.39111 13.7463C3.79553 13.9138 4.22898 14 4.66672 14H12.6667C12.8435 14 13.0131 13.9298 13.1381 13.8047C13.2632 13.6797 13.3334 13.5101 13.3334 13.3333C13.3334 13.1565 13.2632 12.987 13.1381 12.8619C13.0131 12.7369 12.8435 12.6667 12.6667 12.6667ZM10.0001 7.33333H7.33339C7.15658 7.33333 6.98701 7.40357 6.86198 7.5286C6.73696 7.65362 6.66672 7.82319 6.66672 8C6.66672 8.17681 6.73696 8.34638 6.86198 8.4714C6.98701 8.59643 7.15658 8.66667 7.33339 8.66667H10.0001C10.1769 8.66667 10.3464 8.59643 10.4715 8.4714C10.5965 8.34638 10.6667 8.17681 10.6667 8C10.6667 7.82319 10.5965 7.65362 10.4715 7.5286C10.3464 7.40357 10.1769 7.33333 10.0001 7.33333ZM16.0001 6.62667C15.9931 6.56542 15.9797 6.50509 15.9601 6.44667V6.38667C15.928 6.31812 15.8852 6.25511 15.8334 6.2V6.2L11.8334 2.2C11.7783 2.14814 11.7153 2.10539 11.6467 2.07333H11.5867C11.519 2.03449 11.4442 2.00956 11.3667 2H6.00006C5.46962 2 4.96091 2.21071 4.58584 2.58579C4.21077 2.96086 4.00006 3.46957 4.00006 4V9.33333C4.00006 9.86377 4.21077 10.3725 4.58584 10.7475C4.96091 11.1226 5.46962 11.3333 6.00006 11.3333H14.0001C14.5305 11.3333 15.0392 11.1226 15.4143 10.7475C15.7893 10.3725 16.0001 9.86377 16.0001 9.33333V6.66667C16.0001 6.66667 16.0001 6.66667 16.0001 6.62667ZM12.0001 4.27333L13.7267 6H12.6667C12.4899 6 12.3203 5.92976 12.1953 5.80474C12.0703 5.67971 12.0001 5.51014 12.0001 5.33333V4.27333ZM14.6667 9.33333C14.6667 9.51014 14.5965 9.67971 14.4715 9.80474C14.3464 9.92976 14.1769 10 14.0001 10H6.00006C5.82324 10 5.65368 9.92976 5.52865 9.80474C5.40363 9.67971 5.33339 9.51014 5.33339 9.33333V4C5.33339 3.82319 5.40363 3.65362 5.52865 3.5286C5.65368 3.40357 5.82324 3.33333 6.00006 3.33333H10.6667V5.33333C10.6667 5.86377 10.8774 6.37247 11.2525 6.74755C11.6276 7.12262 12.1363 7.33333 12.6667 7.33333H14.6667V9.33333ZM7.33339 6H8.66672C8.84353 6 9.0131 5.92976 9.13813 5.80474C9.26315 5.67971 9.33339 5.51014 9.33339 5.33333C9.33339 5.15652 9.26315 4.98695 9.13813 4.86193C9.0131 4.7369 8.84353 4.66667 8.66672 4.66667H7.33339C7.15658 4.66667 6.98701 4.7369 6.86198 4.86193C6.73696 4.98695 6.66672 5.15652 6.66672 5.33333C6.66672 5.51014 6.73696 5.67971 6.86198 5.80474C6.98701 5.92976 7.15658 6 7.33339 6V6Z" fill="#0129E3"/>
</svg>
