<svg width="186" height="27" viewBox="0 0 186 27" fill="none" xmlns="http://www.w3.org/2000/svg">
<path d="M2.84867 26.3832C1.59425 26.3832 0.855347 25.61 0.855347 24.304V3.82087C0.855347 2.06812 1.93793 1.00272 3.70786 1.00272C5.23722 1.00272 6.1136 1.65571 6.76658 3.30536L13.5626 19.9444C13.5783 19.9829 13.6157 20.008 13.6573 20.008C13.6988 20.008 13.7363 19.9829 13.752 19.9443L20.5308 3.30536C21.1838 1.67289 22.0774 1.00272 23.6239 1.00272C25.3938 1.00272 26.4421 2.05094 26.4421 3.82087V24.304C26.4421 25.61 25.7032 26.3832 24.4487 26.3832C23.1943 26.3832 22.4554 25.61 22.4554 24.304V8.56694C22.4554 8.52713 22.4231 8.49487 22.3833 8.49487C22.3542 8.49487 22.3279 8.51247 22.3167 8.53944L15.7537 24.4415C15.3241 25.4725 14.6883 25.9364 13.6573 25.9364C12.6434 25.9364 11.9733 25.4725 11.5609 24.4586L4.99785 8.53946C4.98672 8.51248 4.96042 8.49487 4.93123 8.49487C4.89144 8.49487 4.85918 8.52713 4.85918 8.56692V24.304C4.85918 25.61 4.10309 26.3832 2.84867 26.3832Z" fill="white"/>
<path d="M37.7841 26.452C32.2165 26.452 28.9344 22.9636 28.9344 17.0524C28.9344 11.2443 32.2852 7.49821 37.5435 7.49821C42.5268 7.49821 45.9292 11.0381 45.9292 15.987C45.9292 17.2586 45.2075 18.0147 43.9359 18.0147H33.3335C33.2575 18.0147 33.196 18.0763 33.196 18.1522C33.196 21.1937 34.9659 23.1527 37.7497 23.1527C39.6743 23.1527 40.9287 22.4825 42.3034 20.7297C42.7502 20.2314 43.1454 20.0424 43.7469 20.0424C44.7091 20.0424 45.4652 20.661 45.4652 21.692C45.4652 22.0185 45.3621 22.3966 45.1731 22.7746C43.9702 25.0944 41.2552 26.452 37.7841 26.452ZM33.4595 13.9119C33.3568 14.2505 33.3054 14.4197 33.363 14.6319C33.4071 14.7944 33.5525 14.9904 33.6952 15.0799C33.8815 15.1966 34.1002 15.1966 34.5376 15.1966H40.4719C40.8987 15.1966 41.1121 15.1966 41.2953 15.085C41.4362 14.9992 41.5816 14.8116 41.6296 14.6537C41.6919 14.4484 41.6488 14.281 41.5625 13.9461C41.0654 12.017 39.563 10.8147 37.5607 10.8147C35.5744 10.8147 34.0333 12.0212 33.4595 13.9119Z" fill="white"/>
<path d="M54.7967 26.3832C50.2087 26.3832 47.2359 22.7574 47.2359 16.9665C47.2359 11.2099 50.2087 7.56694 54.7967 7.56694C57.3931 7.56694 59.4461 8.90831 60.4157 10.899C60.4263 10.9209 60.4485 10.935 60.4729 10.935C60.5078 10.935 60.5361 10.9067 60.5361 10.8717V3.20225C60.5361 1.75881 61.4125 0.951172 62.6669 0.951172C63.9213 0.951172 64.8149 1.75881 64.8149 3.20225V24.2868C64.8149 25.6615 63.9385 26.4348 62.7013 26.4348C61.4641 26.4348 60.5361 25.6787 60.5361 24.2868V22.9121C60.5361 22.8836 60.513 22.8605 60.4846 22.8605C60.4638 22.8605 60.445 22.8731 60.4369 22.8923C59.554 24.9713 57.6006 26.3832 54.7967 26.3832ZM56.0855 22.8777C58.7834 22.8777 60.5533 20.5923 60.5533 16.9837C60.5533 13.4094 58.7834 11.0896 56.0855 11.0896C53.3361 11.0896 51.6177 13.3751 51.6177 16.9837C51.6177 20.6095 53.3189 22.8777 56.0855 22.8777Z" fill="white"/>
<path d="M83.6497 26.3832C82.275 26.3832 81.4502 25.5412 81.4502 24.0806V16.6794C81.4502 16.5434 81.4502 16.4754 81.4386 16.4095C81.4283 16.3511 81.4113 16.2941 81.3878 16.2396C81.3614 16.1782 81.3241 16.1214 81.2494 16.0076L73.7003 4.50822C73.391 4.00989 73.2535 3.52874 73.2535 3.03041C73.2535 1.86191 74.1986 1.00272 75.4531 1.00272C76.381 1.00272 76.9137 1.32922 77.4808 2.29151L83.6051 12.0426C83.6222 12.0698 83.652 12.0863 83.6842 12.0863C83.7162 12.0863 83.746 12.0698 83.7631 12.0427L89.9047 2.29151C90.4545 1.36358 91.0044 1.00272 91.8808 1.00272C93.118 1.00272 94.0631 1.86191 94.0631 3.01323C94.0631 3.52874 93.9257 3.99271 93.5992 4.50822L86.0666 16.008C85.9922 16.1216 85.955 16.1784 85.9286 16.2397C85.9052 16.2941 85.8883 16.351 85.878 16.4093C85.8665 16.475 85.8665 16.5429 85.8665 16.6787V24.0806C85.8665 25.5412 85.0416 26.3832 83.6497 26.3832Z" fill="white"/>
<path d="M100.542 26.452C95.198 26.452 91.7268 22.8949 91.7268 16.9837C91.7268 11.1068 95.2323 7.49821 100.542 7.49821C105.852 7.49821 109.357 11.0896 109.357 16.9837C109.357 22.8949 105.886 26.452 100.542 26.452ZM100.542 23.0667C103.257 23.0667 105.01 20.8672 105.01 16.9837C105.01 13.1173 103.257 10.9006 100.542 10.9006C97.8443 10.9006 96.0743 13.1173 96.0743 16.9837C96.0743 20.8672 97.8271 23.0667 100.542 23.0667Z" fill="white"/>
<path d="M113.534 26.4348C112.245 26.4348 111.403 25.5928 111.403 24.1837V9.68055C111.403 8.34021 112.228 7.51539 113.448 7.51539C114.634 7.51539 115.476 8.34021 115.476 9.68055V11.0245C115.476 11.051 115.497 11.0724 115.523 11.0724C115.546 11.0724 115.565 11.0569 115.57 11.0353C116.078 8.92567 117.651 7.56694 119.462 7.56694C120.132 7.56694 120.648 7.73878 120.974 8.03091C121.37 8.3574 121.576 8.87291 121.576 9.57745C121.576 10.2476 121.37 10.7459 120.94 11.0896C120.528 11.4505 119.892 11.6395 119.05 11.6567C116.61 11.6739 115.682 13.2032 115.682 15.4199V24.1837C115.682 25.5928 114.823 26.4348 113.534 26.4348Z" fill="white"/>
<path d="M128.914 26.3832C124.326 26.3832 121.353 22.7574 121.353 16.9665C121.353 11.2099 124.326 7.56694 128.914 7.56694C131.51 7.56694 133.563 8.90831 134.533 10.899C134.544 10.9209 134.566 10.935 134.59 10.935C134.625 10.935 134.653 10.9067 134.653 10.8717V3.20225C134.653 1.75881 135.53 0.951172 136.784 0.951172C138.039 0.951172 138.932 1.75881 138.932 3.20225V24.2868C138.932 25.6615 138.056 26.4348 136.819 26.4348C135.581 26.4348 134.653 25.6787 134.653 24.2868V22.9121C134.653 22.8836 134.63 22.8605 134.602 22.8605C134.581 22.8605 134.562 22.8731 134.554 22.8923C133.671 24.9713 131.718 26.3832 128.914 26.3832ZM130.203 22.8777C132.901 22.8777 134.671 20.5923 134.671 16.9837C134.671 13.4094 132.901 11.0896 130.203 11.0896C127.453 11.0896 125.735 13.3751 125.735 16.9837C125.735 20.6095 127.436 22.8777 130.203 22.8777Z" fill="white"/>
<path d="M147.164 26.3832C143.641 26.3832 141.081 24.1665 141.081 20.8844C141.081 17.6538 143.572 15.7121 148.006 15.4371L151.68 15.2279C152.086 15.2048 152.29 15.1932 152.444 15.1068C152.579 15.0306 152.689 14.915 152.757 14.7751C152.835 14.6162 152.835 14.4128 152.835 14.0058V13.8562C152.835 11.9488 151.546 10.8491 149.432 10.8491C147.765 10.8491 146.683 11.4161 145.617 12.9798C145.171 13.5641 144.604 13.839 143.882 13.839C142.834 13.839 142.077 13.1517 142.077 12.1207C142.077 11.7254 142.181 11.3474 142.37 10.9522C143.298 8.83855 146.116 7.49821 149.604 7.49821C154.123 7.49821 157.062 9.88676 157.062 13.5469V24.2868C157.062 25.6615 156.185 26.4348 154.983 26.4348C153.814 26.4348 153.006 25.7302 152.938 24.4586V23.2407C152.938 23.2111 152.914 23.187 152.884 23.187C152.864 23.187 152.846 23.198 152.837 23.2155C151.782 25.1749 149.507 26.3832 147.164 26.3832ZM148.47 23.1527C150.876 23.1527 152.835 21.5374 152.835 19.3379V19.247C152.835 18.7943 152.835 18.568 152.745 18.3994C152.666 18.2512 152.54 18.133 152.387 18.0632C152.214 17.9838 151.988 17.9976 151.536 18.0252L148.607 18.2037C146.545 18.3412 145.36 19.2691 145.36 20.7126C145.36 22.2076 146.614 23.1527 148.47 23.1527Z" fill="white"/>
<path d="M161.943 26.4348C160.654 26.4348 159.812 25.61 159.812 24.1837V9.69774C159.812 8.30585 160.654 7.51539 161.857 7.51539C163.06 7.51539 163.919 8.30585 163.919 9.69774V10.9873C163.919 11.0154 163.942 11.0381 163.97 11.0381C163.991 11.0381 164.01 11.0248 164.017 11.005C164.815 8.90998 166.733 7.53258 169.194 7.53258C171.753 7.53258 173.583 8.83603 174.265 11.1405C174.275 11.1712 174.303 11.1927 174.335 11.1927C174.364 11.1927 174.391 11.1744 174.402 11.147C175.29 8.92256 177.443 7.53258 180.054 7.53258C183.646 7.53258 186 9.95549 186 13.5985V24.1837C186 25.61 185.141 26.4348 183.869 26.4348C182.58 26.4348 181.721 25.61 181.721 24.1837V14.6467C181.721 12.4128 180.553 11.1412 178.456 11.1412C176.394 11.1412 174.985 12.6534 174.985 14.8357V24.1837C174.985 25.61 174.178 26.4348 172.906 26.4348C171.617 26.4348 170.827 25.61 170.827 24.1837V14.4233C170.827 12.3956 169.589 11.1412 167.596 11.1412C165.534 11.1412 164.091 12.7393 164.091 14.9388V24.1837C164.091 25.61 163.214 26.4348 161.943 26.4348Z" fill="white"/>
</svg>
