<svg width="167" height="24" viewBox="0 0 167 24" fill="none" xmlns="http://www.w3.org/2000/svg">
<path d="M2.1638 23.4247C1.03483 23.4247 0.369812 22.7288 0.369812 21.5534V3.11862C0.369812 1.54114 1.34413 0.582285 2.93708 0.582285C4.3135 0.582285 5.10224 1.16997 5.68992 2.65465L11.8063 17.6298C11.8205 17.6644 11.8541 17.6871 11.8915 17.6871C11.929 17.6871 11.9627 17.6644 11.9768 17.6297L18.0777 2.65465C18.6654 1.18544 19.4696 0.582285 20.8615 0.582285C22.4545 0.582285 23.3979 1.52568 23.3979 3.11862V21.5534C23.3979 22.7288 22.7328 23.4247 21.6039 23.4247C20.4749 23.4247 19.8099 22.7288 19.8099 21.5534V7.39008C19.8099 7.35426 19.7808 7.32522 19.745 7.32522C19.7188 7.32522 19.6951 7.34106 19.6851 7.36533L13.7784 21.6772C13.3917 22.6051 12.8195 23.0226 11.8916 23.0226C10.9791 23.0226 10.376 22.6051 10.0048 21.6926L4.09806 7.36535C4.08805 7.34106 4.06438 7.32522 4.03811 7.32522C4.00229 7.32522 3.97326 7.35425 3.97326 7.39007V21.5534C3.97326 22.7288 3.29278 23.4247 2.1638 23.4247Z" fill="#050B2B"/>
<path d="M33.6057 23.4866C28.5949 23.4866 25.641 20.3471 25.641 15.027C25.641 9.79969 28.6567 6.42822 33.3892 6.42822C37.8741 6.42822 40.9363 9.6141 40.9363 14.0682C40.9363 15.2126 40.2867 15.8931 39.1423 15.8931H29.6001C29.5318 15.8931 29.4764 15.9485 29.4764 16.0168C29.4764 18.7542 31.0693 20.5172 33.5747 20.5172C35.3069 20.5172 36.4358 19.9141 37.6731 18.3366C38.0752 17.8881 38.4309 17.718 38.9722 17.718C39.8382 17.718 40.5187 18.2748 40.5187 19.2027C40.5187 19.4965 40.4259 19.8368 40.2558 20.177C39.1732 22.2648 36.7297 23.4866 33.6057 23.4866ZM29.7136 12.2006C29.6211 12.5052 29.5749 12.6576 29.6267 12.8485C29.6664 12.9948 29.7972 13.1712 29.9257 13.2517C30.0934 13.3567 30.2902 13.3567 30.6839 13.3567H36.0247C36.4088 13.3567 36.6009 13.3567 36.7658 13.2563C36.8926 13.1791 37.0235 13.0103 37.0666 12.8682C37.1227 12.6834 37.0839 12.5327 37.0062 12.2314C36.5589 10.4952 35.2067 9.41305 33.4046 9.41305C31.617 9.41305 30.23 10.4989 29.7136 12.2006Z" fill="#050B2B"/>
<path d="M48.9171 23.4247C44.7878 23.4247 42.1123 20.1615 42.1123 14.9497C42.1123 9.76876 44.7878 6.49008 48.9171 6.49008C51.2538 6.49008 53.1015 7.69731 53.9741 9.48897C53.9837 9.50868 54.0037 9.52131 54.0256 9.52131C54.057 9.52131 54.0825 9.49582 54.0825 9.46438V2.56186C54.0825 1.26276 54.8713 0.535889 56.0002 0.535889C57.1292 0.535889 57.9334 1.26276 57.9334 2.56186V21.538C57.9334 22.7752 57.1447 23.4711 56.0312 23.4711C54.9177 23.4711 54.0825 22.7907 54.0825 21.538V20.3007C54.0825 20.2751 54.0618 20.2543 54.0361 20.2543C54.0174 20.2543 54.0005 20.2656 53.9932 20.2829C53.1986 22.1541 51.4406 23.4247 48.9171 23.4247ZM50.077 20.2698C52.5051 20.2698 54.098 18.2129 54.098 14.9651C54.098 11.7483 52.5051 9.6605 50.077 9.6605C47.6025 9.6605 46.056 11.7174 46.056 14.9651C46.056 18.2284 47.587 20.2698 50.077 20.2698Z" fill="#050B2B"/>
<path d="M74.8848 23.4247C73.6476 23.4247 72.9052 22.6669 72.9052 21.3524V14.6913C72.9052 14.5689 72.9052 14.5077 72.8948 14.4484C72.8855 14.3958 72.8702 14.3445 72.8491 14.2955C72.8253 14.2402 72.7917 14.1891 72.7245 14.0867L65.9303 3.73724C65.6519 3.28874 65.5282 2.85571 65.5282 2.40721C65.5282 1.35556 66.3788 0.582285 67.5078 0.582285C68.3429 0.582285 68.8223 0.876128 69.3327 1.74219L74.8446 10.5182C74.86 10.5426 74.8869 10.5575 74.9158 10.5575C74.9446 10.5575 74.9715 10.5427 74.9868 10.5183L80.5142 1.74219C81.0091 0.907059 81.504 0.582285 82.2927 0.582285C83.4062 0.582285 84.2569 1.35556 84.2569 2.39174C84.2569 2.85571 84.1331 3.27327 83.8393 3.73724L77.0599 14.087C76.993 14.1893 76.9595 14.2404 76.9358 14.2955C76.9147 14.3445 76.8995 14.3958 76.8902 14.4482C76.8798 14.5074 76.8798 14.5685 76.8798 14.6907V21.3524C76.8798 22.6669 76.1375 23.4247 74.8848 23.4247Z" fill="#050B2B"/>
<path d="M90.0879 23.4866C85.2782 23.4866 82.1542 20.2853 82.1542 14.9651C82.1542 9.67597 85.3091 6.42822 90.0879 6.42822C94.8668 6.42822 98.0217 9.6605 98.0217 14.9651C98.0217 20.2853 94.8977 23.4866 90.0879 23.4866ZM90.0879 20.4399C92.5315 20.4399 94.109 18.4603 94.109 14.9651C94.109 11.4854 92.5315 9.49038 90.0879 9.49038C87.6599 9.49038 86.0669 11.4854 86.0669 14.9651C86.0669 18.4603 87.6444 20.4399 90.0879 20.4399Z" fill="#050B2B"/>
<path d="M101.78 23.4711C100.621 23.4711 99.8627 22.7133 99.8627 21.4452V8.39233C99.8627 7.18603 100.605 6.44369 101.703 6.44369C102.77 6.44369 103.528 7.18603 103.528 8.39233V9.60191C103.528 9.62573 103.547 9.64503 103.571 9.64503C103.591 9.64503 103.609 9.63104 103.613 9.61157C104.07 7.71294 105.486 6.49008 107.116 6.49008C107.719 6.49008 108.183 6.64474 108.477 6.90765C108.833 7.2015 109.018 7.66546 109.018 8.29954C109.018 8.90269 108.833 9.35119 108.446 9.6605C108.075 9.98528 107.503 10.1554 106.745 10.1709C104.549 10.1863 103.714 11.5627 103.714 13.5578V21.4452C103.714 22.7133 102.94 23.4711 101.78 23.4711Z" fill="#050B2B"/>
<path d="M115.623 23.4247C111.493 23.4247 108.818 20.1615 108.818 14.9497C108.818 9.76876 111.493 6.49008 115.623 6.49008C117.959 6.49008 119.807 7.69731 120.68 9.48897C120.689 9.50868 120.709 9.52131 120.731 9.52131C120.763 9.52131 120.788 9.49582 120.788 9.46438V2.56186C120.788 1.26276 121.577 0.535889 122.706 0.535889C123.835 0.535889 124.639 1.26276 124.639 2.56186V21.538C124.639 22.7752 123.85 23.4711 122.737 23.4711C121.623 23.4711 120.788 22.7907 120.788 21.538V20.3007C120.788 20.2751 120.767 20.2543 120.742 20.2543C120.723 20.2543 120.706 20.2656 120.699 20.2829C119.904 22.1541 118.146 23.4247 115.623 23.4247ZM116.783 20.2698C119.211 20.2698 120.804 18.2129 120.804 14.9651C120.804 11.7483 119.211 9.6605 116.783 9.6605C114.308 9.6605 112.762 11.7174 112.762 14.9651C112.762 18.2284 114.293 20.2698 116.783 20.2698Z" fill="#050B2B"/>
<path d="M132.048 23.4247C128.877 23.4247 126.573 21.4297 126.573 18.4758C126.573 15.5683 128.815 13.8207 132.805 13.5733L136.112 13.385C136.478 13.3642 136.661 13.3537 136.799 13.2759C136.922 13.2074 137.02 13.1033 137.081 12.9774C137.151 12.8345 137.151 12.6513 137.151 12.2851V12.1504C137.151 10.4338 135.991 9.44398 134.089 9.44398C132.589 9.44398 131.615 9.95434 130.656 11.3617C130.254 11.8875 129.743 12.135 129.094 12.135C128.15 12.135 127.47 11.5164 127.47 10.5884C127.47 10.2327 127.563 9.89248 127.733 9.53678C128.568 7.63453 131.104 6.42822 134.244 6.42822C138.311 6.42822 140.956 8.57792 140.956 11.8721V21.538C140.956 22.7752 140.167 23.4711 139.084 23.4711C138.033 23.4711 137.306 22.8371 137.244 21.6926V20.5965C137.244 20.5698 137.222 20.5482 137.196 20.5482C137.178 20.5482 137.161 20.5581 137.153 20.5738C136.203 22.3372 134.156 23.4247 132.048 23.4247ZM133.223 20.5172C135.388 20.5172 137.151 19.0635 137.151 17.0839V17.0021C137.151 16.5947 137.151 16.3911 137.07 16.2393C136.999 16.1059 136.886 15.9996 136.749 15.9368C136.592 15.8653 136.389 15.8777 135.982 15.9025L133.347 16.0632C131.491 16.1869 130.424 17.0221 130.424 18.3211C130.424 19.6666 131.553 20.5172 133.223 20.5172Z" fill="#050B2B"/>
<path d="M145.348 23.4711C144.189 23.4711 143.431 22.7288 143.431 21.4452V8.4078C143.431 7.1551 144.189 6.44369 145.271 6.44369C146.354 6.44369 147.127 7.1551 147.127 8.4078V9.56845C147.127 9.59366 147.147 9.6141 147.173 9.6141C147.192 9.6141 147.209 9.60218 147.216 9.58438C147.934 7.69882 149.659 6.45915 151.875 6.45915C154.177 6.45915 155.825 7.63226 156.439 9.70629C156.447 9.73391 156.472 9.75329 156.501 9.75329C156.528 9.75329 156.552 9.73681 156.562 9.71209C157.361 7.71014 159.299 6.45915 161.649 6.45915C164.881 6.45915 167 8.63978 167 11.9185V21.4452C167 22.7288 166.227 23.4711 165.082 23.4711C163.922 23.4711 163.149 22.7288 163.149 21.4452V12.8618C163.149 10.8513 162.098 9.7069 160.211 9.7069C158.355 9.7069 157.087 11.0679 157.087 13.032V21.4452C157.087 22.7288 156.36 23.4711 155.215 23.4711C154.055 23.4711 153.344 22.7288 153.344 21.4452V12.6608C153.344 10.8359 152.231 9.7069 150.437 9.7069C148.581 9.7069 147.282 11.1452 147.282 13.1248V21.4452C147.282 22.7288 146.493 23.4711 145.348 23.4711Z" fill="#050B2B"/>
</svg>
