<svg width="15" height="14" viewBox="0 0 15 14" fill="none" xmlns="http://www.w3.org/2000/svg">
<path d="M14 5.44664C13.9579 5.3247 13.8813 5.21759 13.7795 5.13831C13.6778 5.05903 13.5552 5.01097 13.4267 4.99997L9.63332 4.44664L7.93332 0.999975C7.87873 0.887261 7.79349 0.792203 7.68738 0.72569C7.58126 0.659178 7.45856 0.623901 7.33332 0.623901C7.20808 0.623901 7.08538 0.659178 6.97926 0.72569C6.87314 0.792203 6.78791 0.887261 6.73332 0.999975L5.03332 4.43997L1.23998 4.99997C1.1166 5.01751 1.0006 5.06928 0.905152 5.14941C0.809703 5.22954 0.738625 5.33482 0.699985 5.45331C0.664615 5.56909 0.661441 5.69232 0.690803 5.80977C0.720166 5.92722 0.780957 6.03446 0.866652 6.11997L3.61999 8.78664L2.95332 12.5733C2.92952 12.6983 2.94198 12.8275 2.98923 12.9456C3.03649 13.0637 3.11655 13.1659 3.21999 13.24C3.3208 13.312 3.4397 13.3546 3.56335 13.3628C3.687 13.3711 3.8105 13.3447 3.91999 13.2866L7.33332 11.5066L10.7333 13.2933C10.8269 13.3461 10.9326 13.3737 11.04 13.3733C11.1812 13.3738 11.3189 13.3295 11.4333 13.2466C11.5367 13.1725 11.6168 13.0704 11.6641 12.9523C11.7113 12.8341 11.7238 12.705 11.7 12.58L11.0333 8.79331L13.7867 6.12664C13.8829 6.04509 13.954 5.93791 13.9918 5.81754C14.0296 5.69717 14.0324 5.56856 14 5.44664ZM9.89999 8.11331C9.8218 8.18893 9.76331 8.28254 9.72961 8.38596C9.69591 8.48938 9.68803 8.59947 9.70665 8.70664L10.1867 11.5L7.67999 10.1666C7.58353 10.1153 7.47593 10.0884 7.36665 10.0884C7.25737 10.0884 7.14977 10.1153 7.05332 10.1666L4.54665 11.5L5.02665 8.70664C5.04528 8.59947 5.03739 8.48938 5.00369 8.38596C4.97 8.28254 4.9115 8.18893 4.83332 8.11331L2.83332 6.11331L5.63999 5.70664C5.74798 5.69162 5.85065 5.65034 5.93898 5.58641C6.02732 5.52248 6.09862 5.43787 6.14665 5.33997L7.33332 2.79997L8.58665 5.34664C8.63468 5.44453 8.70599 5.52915 8.79432 5.59308C8.88265 5.657 8.98532 5.69829 9.09332 5.71331L11.9 6.11997L9.89999 8.11331Z" fill="#0129E3"/>
</svg>
